<svg id="Layer_1" enable-background="new 0 0 512.011 512.011" height="24" viewBox="0 0 512.011 512.011" width="24" xmlns="http://www.w3.org/2000/svg"><g><path d="m492.009 90.635c-8.989-12.186-21.438-18.626-36-18.626-32.391 0-57.801 44.681-72.031 74.671l-60.209-27.789c-42.289-19.518-91.907-20.129-135.52 0l-60.209 27.789c-14.13-29.779-39.666-74.671-72.031-74.671-14.563 0-27.011 6.441-36 18.626-21.048 28.531-20 86.346-20 125.374 0 46.98 19.679 90.734 56.91 126.533 25.928 24.93 51.833 37.822 55.876 39.754l75.453 40.629c41.911 22.568 92.864 22.97 135.521 0l75.454-40.629c4.043-1.932 29.948-14.824 55.876-39.754 37.231-35.799 56.91-79.553 56.91-126.533 0-40.998.673-97.35-20-125.374zm-460 125.374c0-39.142 0-112 24-112 4.038 0 14.92 6.725 30.098 31.929 8.742 14.517 15.353 29.313 17.902 35.279v168.631c-28.021-19.553-72-60.354-72-123.839zm344 142.443-67.411 36.298c-32.055 17.261-71.607 18.077-105.179 0l-67.41-36.298v-180.206l65.65-30.3c33.921-15.656 73.717-16.145 108.699 0l65.65 30.3v180.206zm32-18.605v-168.631c2.549-5.965 9.16-20.762 17.902-35.279 15.178-25.204 26.061-31.929 30.098-31.929 24 0 24 72.858 24 112 0 52.365-29.755 94.414-72 123.839z"/></g></svg>